<mxfile host="Electron" agent="Mozilla/5.0 (X11; Linux x86_64) AppleWebKit/537.36 (KHTML, like Gecko) draw.io/24.7.17 Chrome/128.0.6613.36 Electron/32.0.1 Safari/537.36" version="24.7.17">
  <diagram name="PÃ¡gina-1" id="SOba1UaLriXJjsXyT7SM">
    <mxGraphModel dx="1687" dy="986" grid="1" gridSize="10" guides="1" tooltips="1" connect="1" arrows="1" fold="1" page="1" pageScale="1" pageWidth="827" pageHeight="1169" math="0" shadow="0">
      <root>
        <mxCell id="0" />
        <mxCell id="1" parent="0" />
        <mxCell id="YbzjO0Wu5X_i4sQfWM_N-7" value="" style="edgeStyle=orthogonalEdgeStyle;rounded=0;orthogonalLoop=1;jettySize=auto;html=1;" parent="1" source="hsqu-6k01tQYFVH3qqYs-8" target="RlSv3J6TSQUPRLLL2TL5-8" edge="1">
          <mxGeometry relative="1" as="geometry" />
        </mxCell>
        <mxCell id="hsqu-6k01tQYFVH3qqYs-8" value="" style="sketch=0;points=[[0,0,0],[0.25,0,0],[0.5,0,0],[0.75,0,0],[1,0,0],[0,1,0],[0.25,1,0],[0.5,1,0],[0.75,1,0],[1,1,0],[0,0.25,0],[0,0.5,0],[0,0.75,0],[1,0.25,0],[1,0.5,0],[1,0.75,0]];outlineConnect=0;fontColor=#232F3E;fillColor=#01A88D;strokeColor=#ffffff;dashed=0;verticalLabelPosition=bottom;verticalAlign=top;align=center;html=1;fontSize=12;fontStyle=0;aspect=fixed;shape=mxgraph.aws4.resourceIcon;resIcon=mxgraph.aws4.augmented_ai;" parent="1" vertex="1">
          <mxGeometry x="31" y="748" width="78" height="78" as="geometry" />
        </mxCell>
        <mxCell id="hsqu-6k01tQYFVH3qqYs-10" value="Recognizer" style="text;html=1;align=center;verticalAlign=middle;resizable=0;points=[];autosize=1;strokeColor=none;fillColor=none;" parent="1" vertex="1">
          <mxGeometry x="30" y="826" width="80" height="30" as="geometry" />
        </mxCell>
        <mxCell id="YbzjO0Wu5X_i4sQfWM_N-19" value="" style="edgeStyle=orthogonalEdgeStyle;rounded=0;orthogonalLoop=1;jettySize=auto;html=1;entryX=0;entryY=0.5;entryDx=0;entryDy=0;entryPerimeter=0;" parent="1" source="hsqu-6k01tQYFVH3qqYs-15" target="hsqu-6k01tQYFVH3qqYs-21" edge="1">
          <mxGeometry relative="1" as="geometry" />
        </mxCell>
        <mxCell id="hsqu-6k01tQYFVH3qqYs-15" value="" style="sketch=0;points=[[0,0,0],[0.25,0,0],[0.5,0,0],[0.75,0,0],[1,0,0],[0,1,0],[0.25,1,0],[0.5,1,0],[0.75,1,0],[1,1,0],[0,0.25,0],[0,0.5,0],[0,0.75,0],[1,0.25,0],[1,0.5,0],[1,0.75,0]];outlineConnect=0;fontColor=#232F3E;fillColor=#ED7100;strokeColor=#ffffff;dashed=0;verticalLabelPosition=bottom;verticalAlign=top;align=center;html=1;fontSize=12;fontStyle=0;aspect=fixed;shape=mxgraph.aws4.resourceIcon;resIcon=mxgraph.aws4.compute;" parent="1" vertex="1">
          <mxGeometry x="1240" y="481" width="78" height="78" as="geometry" />
        </mxCell>
        <mxCell id="hsqu-6k01tQYFVH3qqYs-65" style="edgeStyle=orthogonalEdgeStyle;rounded=0;orthogonalLoop=1;jettySize=auto;html=1;" parent="1" source="hsqu-6k01tQYFVH3qqYs-20" edge="1">
          <mxGeometry relative="1" as="geometry">
            <mxPoint x="1564" y="399" as="targetPoint" />
          </mxGeometry>
        </mxCell>
        <mxCell id="hsqu-6k01tQYFVH3qqYs-20" value="" style="sketch=0;points=[[0,0,0],[0.25,0,0],[0.5,0,0],[0.75,0,0],[1,0,0],[0,1,0],[0.25,1,0],[0.5,1,0],[0.75,1,0],[1,1,0],[0,0.25,0],[0,0.5,0],[0,0.75,0],[1,0.25,0],[1,0.5,0],[1,0.75,0]];outlineConnect=0;fontColor=#232F3E;fillColor=#ED7100;strokeColor=#ffffff;dashed=0;verticalLabelPosition=bottom;verticalAlign=top;align=center;html=1;fontSize=12;fontStyle=0;aspect=fixed;shape=mxgraph.aws4.resourceIcon;resIcon=mxgraph.aws4.compute;" parent="1" vertex="1">
          <mxGeometry x="1404" y="360" width="78" height="78" as="geometry" />
        </mxCell>
        <mxCell id="hsqu-6k01tQYFVH3qqYs-67" style="edgeStyle=orthogonalEdgeStyle;rounded=0;orthogonalLoop=1;jettySize=auto;html=1;" parent="1" source="hsqu-6k01tQYFVH3qqYs-21" edge="1">
          <mxGeometry relative="1" as="geometry">
            <mxPoint x="1564" y="517" as="targetPoint" />
          </mxGeometry>
        </mxCell>
        <mxCell id="hsqu-6k01tQYFVH3qqYs-21" value="" style="sketch=0;points=[[0,0,0],[0.25,0,0],[0.5,0,0],[0.75,0,0],[1,0,0],[0,1,0],[0.25,1,0],[0.5,1,0],[0.75,1,0],[1,1,0],[0,0.25,0],[0,0.5,0],[0,0.75,0],[1,0.25,0],[1,0.5,0],[1,0.75,0]];outlineConnect=0;fontColor=#232F3E;fillColor=#ED7100;strokeColor=#ffffff;dashed=0;verticalLabelPosition=bottom;verticalAlign=top;align=center;html=1;fontSize=12;fontStyle=0;aspect=fixed;shape=mxgraph.aws4.resourceIcon;resIcon=mxgraph.aws4.compute;" parent="1" vertex="1">
          <mxGeometry x="1404" y="478" width="78" height="78" as="geometry" />
        </mxCell>
        <mxCell id="hsqu-6k01tQYFVH3qqYs-69" style="edgeStyle=orthogonalEdgeStyle;rounded=0;orthogonalLoop=1;jettySize=auto;html=1;" parent="1" source="hsqu-6k01tQYFVH3qqYs-32" edge="1">
          <mxGeometry relative="1" as="geometry">
            <mxPoint x="1564" y="637" as="targetPoint" />
          </mxGeometry>
        </mxCell>
        <mxCell id="hsqu-6k01tQYFVH3qqYs-32" value="" style="sketch=0;points=[[0,0,0],[0.25,0,0],[0.5,0,0],[0.75,0,0],[1,0,0],[0,1,0],[0.25,1,0],[0.5,1,0],[0.75,1,0],[1,1,0],[0,0.25,0],[0,0.5,0],[0,0.75,0],[1,0.25,0],[1,0.5,0],[1,0.75,0]];outlineConnect=0;fontColor=#232F3E;fillColor=#ED7100;strokeColor=#ffffff;dashed=0;verticalLabelPosition=bottom;verticalAlign=top;align=center;html=1;fontSize=12;fontStyle=0;aspect=fixed;shape=mxgraph.aws4.resourceIcon;resIcon=mxgraph.aws4.compute;" parent="1" vertex="1">
          <mxGeometry x="1404" y="598" width="78" height="78" as="geometry" />
        </mxCell>
        <mxCell id="hsqu-6k01tQYFVH3qqYs-56" value="Location&lt;div&gt;Service&lt;/div&gt;" style="text;html=1;align=center;verticalAlign=middle;resizable=0;points=[];autosize=1;strokeColor=none;fillColor=none;" parent="1" vertex="1">
          <mxGeometry x="1408" y="320" width="70" height="40" as="geometry" />
        </mxCell>
        <mxCell id="hsqu-6k01tQYFVH3qqYs-58" value="Advertising&lt;div&gt;Service&lt;/div&gt;" style="text;html=1;align=center;verticalAlign=middle;resizable=0;points=[];autosize=1;strokeColor=none;fillColor=none;" parent="1" vertex="1">
          <mxGeometry x="1403" y="559" width="80" height="40" as="geometry" />
        </mxCell>
        <mxCell id="hsqu-6k01tQYFVH3qqYs-59" value="Reaction&lt;div&gt;Service&lt;/div&gt;" style="text;html=1;align=center;verticalAlign=middle;resizable=0;points=[];autosize=1;strokeColor=none;fillColor=none;" parent="1" vertex="1">
          <mxGeometry x="1408" y="440" width="70" height="40" as="geometry" />
        </mxCell>
        <mxCell id="hsqu-6k01tQYFVH3qqYs-72" value="LocationDB" style="text;html=1;align=center;verticalAlign=middle;resizable=0;points=[];autosize=1;strokeColor=none;fillColor=none;" parent="1" vertex="1">
          <mxGeometry x="1558" y="330" width="90" height="30" as="geometry" />
        </mxCell>
        <mxCell id="hsqu-6k01tQYFVH3qqYs-75" value="AdvertisingDB" style="text;html=1;align=center;verticalAlign=middle;resizable=0;points=[];autosize=1;strokeColor=none;fillColor=none;" parent="1" vertex="1">
          <mxGeometry x="1553" y="567" width="100" height="30" as="geometry" />
        </mxCell>
        <mxCell id="hsqu-6k01tQYFVH3qqYs-76" value="ReactionDB" style="text;html=1;align=center;verticalAlign=middle;resizable=0;points=[];autosize=1;strokeColor=none;fillColor=none;" parent="1" vertex="1">
          <mxGeometry x="1558" y="448" width="90" height="30" as="geometry" />
        </mxCell>
        <mxCell id="RlSv3J6TSQUPRLLL2TL5-30" value="" style="edgeStyle=orthogonalEdgeStyle;rounded=0;orthogonalLoop=1;jettySize=auto;html=1;" parent="1" source="RlSv3J6TSQUPRLLL2TL5-4" edge="1">
          <mxGeometry relative="1" as="geometry">
            <mxPoint x="191" y="399" as="targetPoint" />
          </mxGeometry>
        </mxCell>
        <mxCell id="RlSv3J6TSQUPRLLL2TL5-4" value="" style="sketch=0;points=[[0,0,0],[0.25,0,0],[0.5,0,0],[0.75,0,0],[1,0,0],[0,1,0],[0.25,1,0],[0.5,1,0],[0.75,1,0],[1,1,0],[0,0.25,0],[0,0.5,0],[0,0.75,0],[1,0.25,0],[1,0.5,0],[1,0.75,0]];outlineConnect=0;fontColor=#232F3E;fillColor=#ED7100;strokeColor=#ffffff;dashed=0;verticalLabelPosition=bottom;verticalAlign=top;align=center;html=1;fontSize=12;fontStyle=0;aspect=fixed;shape=mxgraph.aws4.resourceIcon;resIcon=mxgraph.aws4.compute;" parent="1" vertex="1">
          <mxGeometry x="31" y="360" width="78" height="78" as="geometry" />
        </mxCell>
        <mxCell id="RlSv3J6TSQUPRLLL2TL5-31" value="" style="edgeStyle=orthogonalEdgeStyle;rounded=0;orthogonalLoop=1;jettySize=auto;html=1;" parent="1" source="RlSv3J6TSQUPRLLL2TL5-6" edge="1">
          <mxGeometry relative="1" as="geometry">
            <mxPoint x="185" y="517" as="targetPoint" />
          </mxGeometry>
        </mxCell>
        <mxCell id="RlSv3J6TSQUPRLLL2TL5-6" value="" style="sketch=0;points=[[0,0,0],[0.25,0,0],[0.5,0,0],[0.75,0,0],[1,0,0],[0,1,0],[0.25,1,0],[0.5,1,0],[0.75,1,0],[1,1,0],[0,0.25,0],[0,0.5,0],[0,0.75,0],[1,0.25,0],[1,0.5,0],[1,0.75,0]];outlineConnect=0;fontColor=#232F3E;fillColor=#ED7100;strokeColor=#ffffff;dashed=0;verticalLabelPosition=bottom;verticalAlign=top;align=center;html=1;fontSize=12;fontStyle=0;aspect=fixed;shape=mxgraph.aws4.resourceIcon;resIcon=mxgraph.aws4.compute;" parent="1" vertex="1">
          <mxGeometry x="31" y="478" width="78" height="78" as="geometry" />
        </mxCell>
        <mxCell id="RlSv3J6TSQUPRLLL2TL5-32" value="" style="edgeStyle=orthogonalEdgeStyle;rounded=0;orthogonalLoop=1;jettySize=auto;html=1;" parent="1" source="RlSv3J6TSQUPRLLL2TL5-8" edge="1">
          <mxGeometry relative="1" as="geometry">
            <mxPoint x="185" y="637" as="targetPoint" />
          </mxGeometry>
        </mxCell>
        <mxCell id="RlSv3J6TSQUPRLLL2TL5-8" value="" style="sketch=0;points=[[0,0,0],[0.25,0,0],[0.5,0,0],[0.75,0,0],[1,0,0],[0,1,0],[0.25,1,0],[0.5,1,0],[0.75,1,0],[1,1,0],[0,0.25,0],[0,0.5,0],[0,0.75,0],[1,0.25,0],[1,0.5,0],[1,0.75,0]];outlineConnect=0;fontColor=#232F3E;fillColor=#ED7100;strokeColor=#ffffff;dashed=0;verticalLabelPosition=bottom;verticalAlign=top;align=center;html=1;fontSize=12;fontStyle=0;aspect=fixed;shape=mxgraph.aws4.resourceIcon;resIcon=mxgraph.aws4.compute;" parent="1" vertex="1">
          <mxGeometry x="31" y="598" width="78" height="78" as="geometry" />
        </mxCell>
        <mxCell id="RlSv3J6TSQUPRLLL2TL5-14" value="Location" style="text;html=1;align=center;verticalAlign=middle;resizable=0;points=[];autosize=1;strokeColor=none;fillColor=none;" parent="1" vertex="1">
          <mxGeometry x="35" y="330" width="70" height="30" as="geometry" />
        </mxCell>
        <mxCell id="RlSv3J6TSQUPRLLL2TL5-15" value="Advertising" style="text;html=1;align=center;verticalAlign=middle;resizable=0;points=[];autosize=1;strokeColor=none;fillColor=none;" parent="1" vertex="1">
          <mxGeometry x="30" y="448" width="80" height="30" as="geometry" />
        </mxCell>
        <mxCell id="RlSv3J6TSQUPRLLL2TL5-16" value="Reaction" style="text;html=1;align=center;verticalAlign=middle;resizable=0;points=[];autosize=1;strokeColor=none;fillColor=none;" parent="1" vertex="1">
          <mxGeometry x="35" y="568" width="70" height="30" as="geometry" />
        </mxCell>
        <mxCell id="RlSv3J6TSQUPRLLL2TL5-22" value="LocationDB" style="text;html=1;align=center;verticalAlign=middle;resizable=0;points=[];autosize=1;strokeColor=none;fillColor=none;" parent="1" vertex="1">
          <mxGeometry x="184" y="330" width="90" height="30" as="geometry" />
        </mxCell>
        <mxCell id="RlSv3J6TSQUPRLLL2TL5-23" value="AdvertisingDB" style="text;html=1;align=center;verticalAlign=middle;resizable=0;points=[];autosize=1;strokeColor=none;fillColor=none;" parent="1" vertex="1">
          <mxGeometry x="174" y="448" width="100" height="30" as="geometry" />
        </mxCell>
        <mxCell id="RlSv3J6TSQUPRLLL2TL5-24" value="ReactionDB" style="text;html=1;align=center;verticalAlign=middle;resizable=0;points=[];autosize=1;strokeColor=none;fillColor=none;" parent="1" vertex="1">
          <mxGeometry x="179" y="568" width="90" height="30" as="geometry" />
        </mxCell>
        <mxCell id="SpgIZWaKSg_-XhTi-_bz-2" value="" style="edgeStyle=orthogonalEdgeStyle;rounded=0;orthogonalLoop=1;jettySize=auto;html=1;" parent="1" source="RlSv3J6TSQUPRLLL2TL5-33" target="SpgIZWaKSg_-XhTi-_bz-1" edge="1">
          <mxGeometry relative="1" as="geometry" />
        </mxCell>
        <mxCell id="RlSv3J6TSQUPRLLL2TL5-33" value="" style="sketch=0;points=[[0,0,0],[0.25,0,0],[0.5,0,0],[0.75,0,0],[1,0,0],[0,1,0],[0.25,1,0],[0.5,1,0],[0.75,1,0],[1,1,0],[0,0.25,0],[0,0.5,0],[0,0.75,0],[1,0.25,0],[1,0.5,0],[1,0.75,0]];outlineConnect=0;fontColor=#232F3E;fillColor=#ED7100;strokeColor=#ffffff;dashed=0;verticalLabelPosition=bottom;verticalAlign=top;align=center;html=1;fontSize=12;fontStyle=0;aspect=fixed;shape=mxgraph.aws4.resourceIcon;resIcon=mxgraph.aws4.compute;" parent="1" vertex="1">
          <mxGeometry x="360" y="481" width="78" height="78" as="geometry" />
        </mxCell>
        <mxCell id="RlSv3J6TSQUPRLLL2TL5-34" value="Data Normalization&lt;div&gt;Service&lt;/div&gt;" style="text;html=1;align=center;verticalAlign=middle;resizable=0;points=[];autosize=1;strokeColor=none;fillColor=none;" parent="1" vertex="1">
          <mxGeometry x="400" y="441" width="130" height="40" as="geometry" />
        </mxCell>
        <mxCell id="RlSv3J6TSQUPRLLL2TL5-41" value="" style="sketch=0;points=[[0,0,0],[0.25,0,0],[0.5,0,0],[0.75,0,0],[1,0,0],[0,1,0],[0.25,1,0],[0.5,1,0],[0.75,1,0],[1,1,0],[0,0.25,0],[0,0.5,0],[0,0.75,0],[1,0.25,0],[1,0.5,0],[1,0.75,0]];outlineConnect=0;fontColor=#232F3E;fillColor=#C925D1;strokeColor=#ffffff;dashed=0;verticalLabelPosition=bottom;verticalAlign=top;align=center;html=1;fontSize=12;fontStyle=0;aspect=fixed;shape=mxgraph.aws4.resourceIcon;resIcon=mxgraph.aws4.documentdb_with_mongodb_compatibility;" parent="1" vertex="1">
          <mxGeometry x="191" y="360" width="78" height="78" as="geometry" />
        </mxCell>
        <mxCell id="YbzjO0Wu5X_i4sQfWM_N-18" value="" style="edgeStyle=orthogonalEdgeStyle;rounded=0;orthogonalLoop=1;jettySize=auto;html=1;" parent="1" source="RlSv3J6TSQUPRLLL2TL5-42" target="RlSv3J6TSQUPRLLL2TL5-33" edge="1">
          <mxGeometry relative="1" as="geometry" />
        </mxCell>
        <mxCell id="RlSv3J6TSQUPRLLL2TL5-42" value="" style="sketch=0;points=[[0,0,0],[0.25,0,0],[0.5,0,0],[0.75,0,0],[1,0,0],[0,1,0],[0.25,1,0],[0.5,1,0],[0.75,1,0],[1,1,0],[0,0.25,0],[0,0.5,0],[0,0.75,0],[1,0.25,0],[1,0.5,0],[1,0.75,0]];outlineConnect=0;fontColor=#232F3E;fillColor=#C925D1;strokeColor=#ffffff;dashed=0;verticalLabelPosition=bottom;verticalAlign=top;align=center;html=1;fontSize=12;fontStyle=0;aspect=fixed;shape=mxgraph.aws4.resourceIcon;resIcon=mxgraph.aws4.documentdb_with_mongodb_compatibility;" parent="1" vertex="1">
          <mxGeometry x="185" y="481" width="78" height="78" as="geometry" />
        </mxCell>
        <mxCell id="RlSv3J6TSQUPRLLL2TL5-43" value="" style="sketch=0;points=[[0,0,0],[0.25,0,0],[0.5,0,0],[0.75,0,0],[1,0,0],[0,1,0],[0.25,1,0],[0.5,1,0],[0.75,1,0],[1,1,0],[0,0.25,0],[0,0.5,0],[0,0.75,0],[1,0.25,0],[1,0.5,0],[1,0.75,0]];outlineConnect=0;fontColor=#232F3E;fillColor=#C925D1;strokeColor=#ffffff;dashed=0;verticalLabelPosition=bottom;verticalAlign=top;align=center;html=1;fontSize=12;fontStyle=0;aspect=fixed;shape=mxgraph.aws4.resourceIcon;resIcon=mxgraph.aws4.documentdb_with_mongodb_compatibility;" parent="1" vertex="1">
          <mxGeometry x="185" y="598" width="78" height="78" as="geometry" />
        </mxCell>
        <mxCell id="YbzjO0Wu5X_i4sQfWM_N-6" value="" style="edgeStyle=orthogonalEdgeStyle;rounded=0;orthogonalLoop=1;jettySize=auto;html=1;" parent="1" edge="1">
          <mxGeometry relative="1" as="geometry">
            <mxPoint x="1119" y="481" as="sourcePoint" />
            <mxPoint x="1119" y="422" as="targetPoint" />
          </mxGeometry>
        </mxCell>
        <mxCell id="RlSv3J6TSQUPRLLL2TL5-49" value="" style="sketch=0;points=[[0,0,0],[0.25,0,0],[0.5,0,0],[0.75,0,0],[1,0,0],[0,1,0],[0.25,1,0],[0.5,1,0],[0.75,1,0],[1,1,0],[0,0.25,0],[0,0.5,0],[0,0.75,0],[1,0.25,0],[1,0.5,0],[1,0.75,0]];outlineConnect=0;fontColor=#232F3E;fillColor=#C925D1;strokeColor=#ffffff;dashed=0;verticalLabelPosition=bottom;verticalAlign=top;align=center;html=1;fontSize=12;fontStyle=0;aspect=fixed;shape=mxgraph.aws4.resourceIcon;resIcon=mxgraph.aws4.documentdb_with_mongodb_compatibility;" parent="1" vertex="1">
          <mxGeometry x="1080" y="630" width="78" height="78" as="geometry" />
        </mxCell>
        <mxCell id="RlSv3J6TSQUPRLLL2TL5-50" style="edgeStyle=orthogonalEdgeStyle;rounded=0;orthogonalLoop=1;jettySize=auto;html=1;entryX=0.25;entryY=0;entryDx=0;entryDy=0;entryPerimeter=0;exitX=0.25;exitY=1;exitDx=0;exitDy=0;exitPerimeter=0;" parent="1" target="RlSv3J6TSQUPRLLL2TL5-49" edge="1">
          <mxGeometry relative="1" as="geometry">
            <mxPoint x="1099.4999999999995" y="559" as="sourcePoint" />
          </mxGeometry>
        </mxCell>
        <mxCell id="RlSv3J6TSQUPRLLL2TL5-51" style="edgeStyle=orthogonalEdgeStyle;rounded=0;orthogonalLoop=1;jettySize=auto;html=1;entryX=0.75;entryY=1;entryDx=0;entryDy=0;entryPerimeter=0;exitX=0.75;exitY=0;exitDx=0;exitDy=0;exitPerimeter=0;" parent="1" source="RlSv3J6TSQUPRLLL2TL5-49" edge="1">
          <mxGeometry relative="1" as="geometry">
            <mxPoint x="1138.4999999999995" y="559" as="targetPoint" />
          </mxGeometry>
        </mxCell>
        <mxCell id="RlSv3J6TSQUPRLLL2TL5-52" style="edgeStyle=orthogonalEdgeStyle;rounded=0;orthogonalLoop=1;jettySize=auto;html=1;entryX=0;entryY=0.25;entryDx=0;entryDy=0;entryPerimeter=0;exitX=1;exitY=0.25;exitDx=0;exitDy=0;exitPerimeter=0;" parent="1" target="hsqu-6k01tQYFVH3qqYs-15" edge="1">
          <mxGeometry relative="1" as="geometry">
            <mxPoint x="1158" y="500.5000000000002" as="sourcePoint" />
          </mxGeometry>
        </mxCell>
        <mxCell id="RlSv3J6TSQUPRLLL2TL5-53" style="edgeStyle=orthogonalEdgeStyle;rounded=0;orthogonalLoop=1;jettySize=auto;html=1;entryX=1;entryY=0.75;entryDx=0;entryDy=0;entryPerimeter=0;exitX=0;exitY=0.75;exitDx=0;exitDy=0;exitPerimeter=0;" parent="1" source="hsqu-6k01tQYFVH3qqYs-15" edge="1">
          <mxGeometry relative="1" as="geometry">
            <mxPoint x="1158" y="539.5" as="targetPoint" />
          </mxGeometry>
        </mxCell>
        <mxCell id="RlSv3J6TSQUPRLLL2TL5-54" value="Orchestrator&lt;div&gt;Service&lt;/div&gt;" style="text;html=1;align=center;verticalAlign=middle;resizable=0;points=[];autosize=1;strokeColor=none;fillColor=none;" parent="1" vertex="1">
          <mxGeometry x="1165" y="441" width="90" height="40" as="geometry" />
        </mxCell>
        <mxCell id="RlSv3J6TSQUPRLLL2TL5-58" value="" style="edgeStyle=orthogonalEdgeStyle;rounded=0;orthogonalLoop=1;jettySize=auto;html=1;" parent="1" target="RlSv3J6TSQUPRLLL2TL5-57" edge="1">
          <mxGeometry relative="1" as="geometry">
            <mxPoint x="1119" y="344" as="sourcePoint" />
          </mxGeometry>
        </mxCell>
        <mxCell id="RlSv3J6TSQUPRLLL2TL5-79" value="" style="edgeStyle=orthogonalEdgeStyle;rounded=0;orthogonalLoop=1;jettySize=auto;html=1;" parent="1" source="RlSv3J6TSQUPRLLL2TL5-57" edge="1">
          <mxGeometry relative="1" as="geometry">
            <mxPoint x="1008" y="249" as="targetPoint" />
          </mxGeometry>
        </mxCell>
        <mxCell id="RlSv3J6TSQUPRLLL2TL5-57" value="" style="sketch=0;outlineConnect=0;fontColor=#232F3E;gradientColor=none;fillColor=#C925D1;strokeColor=none;dashed=0;verticalLabelPosition=bottom;verticalAlign=top;align=center;html=1;fontSize=12;fontStyle=0;aspect=fixed;pointerEvents=1;shape=mxgraph.aws4.rds_postgresql_instance;" parent="1" vertex="1">
          <mxGeometry x="1080" y="210" width="78" height="78" as="geometry" />
        </mxCell>
        <mxCell id="RlSv3J6TSQUPRLLL2TL5-59" value="Persistence&lt;div&gt;Service&lt;/div&gt;" style="text;html=1;align=center;verticalAlign=middle;resizable=0;points=[];autosize=1;strokeColor=none;fillColor=none;" parent="1" vertex="1">
          <mxGeometry x="1020" y="290" width="90" height="40" as="geometry" />
        </mxCell>
        <mxCell id="RlSv3J6TSQUPRLLL2TL5-98" value="" style="edgeStyle=orthogonalEdgeStyle;rounded=0;orthogonalLoop=1;jettySize=auto;html=1;" parent="1" source="RlSv3J6TSQUPRLLL2TL5-65" edge="1">
          <mxGeometry relative="1" as="geometry">
            <mxPoint x="1875.9999999999995" y="637" as="targetPoint" />
          </mxGeometry>
        </mxCell>
        <mxCell id="RlSv3J6TSQUPRLLL2TL5-65" value="" style="sketch=0;points=[[0,0,0],[0.25,0,0],[0.5,0,0],[0.75,0,0],[1,0,0],[0,1,0],[0.25,1,0],[0.5,1,0],[0.75,1,0],[1,1,0],[0,0.25,0],[0,0.5,0],[0,0.75,0],[1,0.25,0],[1,0.5,0],[1,0.75,0]];outlineConnect=0;fontColor=#232F3E;fillColor=#ED7100;strokeColor=#ffffff;dashed=0;verticalLabelPosition=bottom;verticalAlign=top;align=center;html=1;fontSize=12;fontStyle=0;aspect=fixed;shape=mxgraph.aws4.resourceIcon;resIcon=mxgraph.aws4.compute;" parent="1" vertex="1">
          <mxGeometry x="1727" y="598" width="78" height="78" as="geometry" />
        </mxCell>
        <mxCell id="RlSv3J6TSQUPRLLL2TL5-66" value="Advertising Reaction&lt;div&gt;Service&lt;/div&gt;" style="text;html=1;align=center;verticalAlign=middle;resizable=0;points=[];autosize=1;strokeColor=none;fillColor=none;" parent="1" vertex="1">
          <mxGeometry x="1696" y="558" width="130" height="40" as="geometry" />
        </mxCell>
        <mxCell id="YbzjO0Wu5X_i4sQfWM_N-28" value="" style="edgeStyle=orthogonalEdgeStyle;rounded=0;orthogonalLoop=1;jettySize=auto;html=1;" parent="1" source="RlSv3J6TSQUPRLLL2TL5-70" edge="1">
          <mxGeometry relative="1" as="geometry">
            <mxPoint x="1875.9999999999995" y="398.0000000000002" as="targetPoint" />
          </mxGeometry>
        </mxCell>
        <mxCell id="RlSv3J6TSQUPRLLL2TL5-70" value="" style="sketch=0;points=[[0,0,0],[0.25,0,0],[0.5,0,0],[0.75,0,0],[1,0,0],[0,1,0],[0.25,1,0],[0.5,1,0],[0.75,1,0],[1,1,0],[0,0.25,0],[0,0.5,0],[0,0.75,0],[1,0.25,0],[1,0.5,0],[1,0.75,0]];outlineConnect=0;fontColor=#232F3E;fillColor=#ED7100;strokeColor=#ffffff;dashed=0;verticalLabelPosition=bottom;verticalAlign=top;align=center;html=1;fontSize=12;fontStyle=0;aspect=fixed;shape=mxgraph.aws4.resourceIcon;resIcon=mxgraph.aws4.compute;" parent="1" vertex="1">
          <mxGeometry x="1727" y="360" width="78" height="78" as="geometry" />
        </mxCell>
        <mxCell id="RlSv3J6TSQUPRLLL2TL5-71" value="Reaction Location&lt;div&gt;Service&lt;/div&gt;" style="text;html=1;align=center;verticalAlign=middle;resizable=0;points=[];autosize=1;strokeColor=none;fillColor=none;" parent="1" vertex="1">
          <mxGeometry x="1706" y="437" width="120" height="40" as="geometry" />
        </mxCell>
        <mxCell id="YbzjO0Wu5X_i4sQfWM_N-22" value="" style="edgeStyle=orthogonalEdgeStyle;rounded=0;orthogonalLoop=1;jettySize=auto;html=1;entryX=0;entryY=0.5;entryDx=0;entryDy=0;entryPerimeter=0;" parent="1" target="RlSv3J6TSQUPRLLL2TL5-65" edge="1">
          <mxGeometry relative="1" as="geometry">
            <mxPoint x="1642" y="637" as="sourcePoint" />
          </mxGeometry>
        </mxCell>
        <mxCell id="YbzjO0Wu5X_i4sQfWM_N-27" value="" style="edgeStyle=orthogonalEdgeStyle;rounded=0;orthogonalLoop=1;jettySize=auto;html=1;" parent="1" target="RlSv3J6TSQUPRLLL2TL5-70" edge="1">
          <mxGeometry relative="1" as="geometry">
            <mxPoint x="1642" y="399" as="sourcePoint" />
          </mxGeometry>
        </mxCell>
        <mxCell id="RlSv3J6TSQUPRLLL2TL5-82" value="" style="edgeStyle=orthogonalEdgeStyle;rounded=0;orthogonalLoop=1;jettySize=auto;html=1;" parent="1" target="RlSv3J6TSQUPRLLL2TL5-80" edge="1">
          <mxGeometry relative="1" as="geometry">
            <mxPoint x="930" y="249" as="sourcePoint" />
          </mxGeometry>
        </mxCell>
        <mxCell id="RlSv3J6TSQUPRLLL2TL5-80" value="" style="sketch=0;outlineConnect=0;fontColor=#232F3E;gradientColor=none;fillColor=#C925D1;strokeColor=none;dashed=0;verticalLabelPosition=bottom;verticalAlign=top;align=center;html=1;fontSize=12;fontStyle=0;aspect=fixed;pointerEvents=1;shape=mxgraph.aws4.rds_postgresql_instance;" parent="1" vertex="1">
          <mxGeometry x="790" y="210" width="78" height="78" as="geometry" />
        </mxCell>
        <mxCell id="RlSv3J6TSQUPRLLL2TL5-81" value="Backup&lt;div&gt;Service&lt;/div&gt;" style="text;html=1;align=center;verticalAlign=middle;resizable=0;points=[];autosize=1;strokeColor=none;fillColor=none;" parent="1" vertex="1">
          <mxGeometry x="939" y="170" width="60" height="40" as="geometry" />
        </mxCell>
        <mxCell id="RlSv3J6TSQUPRLLL2TL5-101" value="" style="edgeStyle=orthogonalEdgeStyle;rounded=0;orthogonalLoop=1;jettySize=auto;html=1;" parent="1" target="RlSv3J6TSQUPRLLL2TL5-99" edge="1">
          <mxGeometry relative="1" as="geometry">
            <mxPoint x="1915" y="436.9006459830771" as="sourcePoint" />
          </mxGeometry>
        </mxCell>
        <mxCell id="RlSv3J6TSQUPRLLL2TL5-100" value="" style="edgeStyle=orthogonalEdgeStyle;rounded=0;orthogonalLoop=1;jettySize=auto;html=1;" parent="1" target="RlSv3J6TSQUPRLLL2TL5-99" edge="1">
          <mxGeometry relative="1" as="geometry">
            <mxPoint x="1915" y="598.0993540169227" as="sourcePoint" />
          </mxGeometry>
        </mxCell>
        <mxCell id="RlSv3J6TSQUPRLLL2TL5-104" value="" style="edgeStyle=orthogonalEdgeStyle;rounded=0;orthogonalLoop=1;jettySize=auto;html=1;" parent="1" source="RlSv3J6TSQUPRLLL2TL5-99" target="RlSv3J6TSQUPRLLL2TL5-103" edge="1">
          <mxGeometry relative="1" as="geometry" />
        </mxCell>
        <mxCell id="RlSv3J6TSQUPRLLL2TL5-99" value="" style="sketch=0;points=[[0,0,0],[0.25,0,0],[0.5,0,0],[0.75,0,0],[1,0,0],[0,1,0],[0.25,1,0],[0.5,1,0],[0.75,1,0],[1,1,0],[0,0.25,0],[0,0.5,0],[0,0.75,0],[1,0.25,0],[1,0.5,0],[1,0.75,0]];outlineConnect=0;fontColor=#232F3E;fillColor=#ED7100;strokeColor=#ffffff;dashed=0;verticalLabelPosition=bottom;verticalAlign=top;align=center;html=1;fontSize=12;fontStyle=0;aspect=fixed;shape=mxgraph.aws4.resourceIcon;resIcon=mxgraph.aws4.compute;" parent="1" vertex="1">
          <mxGeometry x="1876" y="477" width="78" height="78" as="geometry" />
        </mxCell>
        <mxCell id="RlSv3J6TSQUPRLLL2TL5-102" value="Data Avaliation&lt;div&gt;Service&lt;/div&gt;" style="text;html=1;align=center;verticalAlign=middle;resizable=0;points=[];autosize=1;strokeColor=none;fillColor=none;" parent="1" vertex="1">
          <mxGeometry x="1776" y="497" width="100" height="40" as="geometry" />
        </mxCell>
        <mxCell id="RlSv3J6TSQUPRLLL2TL5-107" value="" style="edgeStyle=orthogonalEdgeStyle;rounded=0;orthogonalLoop=1;jettySize=auto;html=1;" parent="1" source="RlSv3J6TSQUPRLLL2TL5-103" target="RlSv3J6TSQUPRLLL2TL5-105" edge="1">
          <mxGeometry relative="1" as="geometry" />
        </mxCell>
        <mxCell id="RlSv3J6TSQUPRLLL2TL5-103" value="" style="sketch=0;points=[[0,0,0],[0.25,0,0],[0.5,0,0],[0.75,0,0],[1,0,0],[0,1,0],[0.25,1,0],[0.5,1,0],[0.75,1,0],[1,1,0],[0,0.25,0],[0,0.5,0],[0,0.75,0],[1,0.25,0],[1,0.5,0],[1,0.75,0]];outlineConnect=0;fontColor=#232F3E;fillColor=#C925D1;strokeColor=#ffffff;dashed=0;verticalLabelPosition=bottom;verticalAlign=top;align=center;html=1;fontSize=12;fontStyle=0;aspect=fixed;shape=mxgraph.aws4.resourceIcon;resIcon=mxgraph.aws4.documentdb_with_mongodb_compatibility;" parent="1" vertex="1">
          <mxGeometry x="2026" y="477" width="78" height="78" as="geometry" />
        </mxCell>
        <mxCell id="RlSv3J6TSQUPRLLL2TL5-105" value="" style="sketch=0;points=[[0,0,0],[0.25,0,0],[0.5,0,0],[0.75,0,0],[1,0,0],[0,1,0],[0.25,1,0],[0.5,1,0],[0.75,1,0],[1,1,0],[0,0.25,0],[0,0.5,0],[0,0.75,0],[1,0.25,0],[1,0.5,0],[1,0.75,0]];outlineConnect=0;fontColor=#232F3E;fillColor=#ED7100;strokeColor=#ffffff;dashed=0;verticalLabelPosition=bottom;verticalAlign=top;align=center;html=1;fontSize=12;fontStyle=0;aspect=fixed;shape=mxgraph.aws4.resourceIcon;resIcon=mxgraph.aws4.compute;" parent="1" vertex="1">
          <mxGeometry x="2176" y="477" width="78" height="78" as="geometry" />
        </mxCell>
        <mxCell id="RlSv3J6TSQUPRLLL2TL5-106" value="Data Avaliation&lt;div&gt;View&lt;/div&gt;" style="text;html=1;align=center;verticalAlign=middle;resizable=0;points=[];autosize=1;strokeColor=none;fillColor=none;" parent="1" vertex="1">
          <mxGeometry x="2262" y="497" width="100" height="40" as="geometry" />
        </mxCell>
        <mxCell id="YbzjO0Wu5X_i4sQfWM_N-4" value="" style="edgeStyle=orthogonalEdgeStyle;rounded=0;orthogonalLoop=1;jettySize=auto;html=1;" parent="1" edge="1">
          <mxGeometry relative="1" as="geometry">
            <mxPoint x="1017" y="520.0000000000002" as="sourcePoint" />
            <mxPoint x="1079.9999999999995" y="520" as="targetPoint" />
          </mxGeometry>
        </mxCell>
        <mxCell id="YbzjO0Wu5X_i4sQfWM_N-3" value="Sender&lt;div&gt;Service&lt;/div&gt;" style="text;html=1;align=center;verticalAlign=middle;resizable=0;points=[];autosize=1;strokeColor=none;fillColor=none;" parent="1" vertex="1">
          <mxGeometry x="948" y="558" width="60" height="40" as="geometry" />
        </mxCell>
        <mxCell id="YbzjO0Wu5X_i4sQfWM_N-5" value="Alocation&lt;div&gt;Service&lt;/div&gt;" style="text;html=1;align=center;verticalAlign=middle;resizable=0;points=[];autosize=1;strokeColor=none;fillColor=none;" parent="1" vertex="1">
          <mxGeometry x="1140" y="562" width="70" height="40" as="geometry" />
        </mxCell>
        <mxCell id="YbzjO0Wu5X_i4sQfWM_N-8" value="" style="sketch=0;points=[[0,0,0],[0.25,0,0],[0.5,0,0],[0.75,0,0],[1,0,0],[0,1,0],[0.25,1,0],[0.5,1,0],[0.75,1,0],[1,1,0],[0,0.25,0],[0,0.5,0],[0,0.75,0],[1,0.25,0],[1,0.5,0],[1,0.75,0]];outlineConnect=0;fontColor=#232F3E;fillColor=#ED7100;strokeColor=#ffffff;dashed=0;verticalLabelPosition=bottom;verticalAlign=top;align=center;html=1;fontSize=12;fontStyle=0;aspect=fixed;shape=mxgraph.aws4.resourceIcon;resIcon=mxgraph.aws4.ec2;" parent="1" vertex="1">
          <mxGeometry x="939" y="481" width="78" height="78" as="geometry" />
        </mxCell>
        <mxCell id="YbzjO0Wu5X_i4sQfWM_N-9" value="" style="sketch=0;points=[[0,0,0],[0.25,0,0],[0.5,0,0],[0.75,0,0],[1,0,0],[0,1,0],[0.25,1,0],[0.5,1,0],[0.75,1,0],[1,1,0],[0,0.25,0],[0,0.5,0],[0,0.75,0],[1,0.25,0],[1,0.5,0],[1,0.75,0]];outlineConnect=0;fontColor=#232F3E;fillColor=#ED7100;strokeColor=#ffffff;dashed=0;verticalLabelPosition=bottom;verticalAlign=top;align=center;html=1;fontSize=12;fontStyle=0;aspect=fixed;shape=mxgraph.aws4.resourceIcon;resIcon=mxgraph.aws4.ec2;" parent="1" vertex="1">
          <mxGeometry x="930" y="210" width="78" height="78" as="geometry" />
        </mxCell>
        <mxCell id="YbzjO0Wu5X_i4sQfWM_N-10" value="" style="sketch=0;points=[[0,0,0],[0.25,0,0],[0.5,0,0],[0.75,0,0],[1,0,0],[0,1,0],[0.25,1,0],[0.5,1,0],[0.75,1,0],[1,1,0],[0,0.25,0],[0,0.5,0],[0,0.75,0],[1,0.25,0],[1,0.5,0],[1,0.75,0]];outlineConnect=0;fontColor=#232F3E;fillColor=#ED7100;strokeColor=#ffffff;dashed=0;verticalLabelPosition=bottom;verticalAlign=top;align=center;html=1;fontSize=12;fontStyle=0;aspect=fixed;shape=mxgraph.aws4.resourceIcon;resIcon=mxgraph.aws4.ec2;" parent="1" vertex="1">
          <mxGeometry x="1080" y="480" width="78" height="78" as="geometry" />
        </mxCell>
        <mxCell id="YbzjO0Wu5X_i4sQfWM_N-11" value="" style="sketch=0;points=[[0,0,0],[0.25,0,0],[0.5,0,0],[0.75,0,0],[1,0,0],[0,1,0],[0.25,1,0],[0.5,1,0],[0.75,1,0],[1,1,0],[0,0.25,0],[0,0.5,0],[0,0.75,0],[1,0.25,0],[1,0.5,0],[1,0.75,0]];outlineConnect=0;fontColor=#232F3E;fillColor=#ED7100;strokeColor=#ffffff;dashed=0;verticalLabelPosition=bottom;verticalAlign=top;align=center;html=1;fontSize=12;fontStyle=0;aspect=fixed;shape=mxgraph.aws4.resourceIcon;resIcon=mxgraph.aws4.ec2;" parent="1" vertex="1">
          <mxGeometry x="1080" y="344" width="78" height="78" as="geometry" />
        </mxCell>
        <mxCell id="YbzjO0Wu5X_i4sQfWM_N-12" value="" style="sketch=0;points=[[0,0,0],[0.25,0,0],[0.5,0,0],[0.75,0,0],[1,0,0],[0,1,0],[0.25,1,0],[0.5,1,0],[0.75,1,0],[1,1,0],[0,0.25,0],[0,0.5,0],[0,0.75,0],[1,0.25,0],[1,0.5,0],[1,0.75,0]];outlineConnect=0;fontColor=#232F3E;fillColor=#C925D1;strokeColor=#ffffff;dashed=0;verticalLabelPosition=bottom;verticalAlign=top;align=center;html=1;fontSize=12;fontStyle=0;aspect=fixed;shape=mxgraph.aws4.resourceIcon;resIcon=mxgraph.aws4.documentdb_with_mongodb_compatibility;" parent="1" vertex="1">
          <mxGeometry x="930" y="344" width="78" height="78" as="geometry" />
        </mxCell>
        <mxCell id="YbzjO0Wu5X_i4sQfWM_N-13" style="edgeStyle=orthogonalEdgeStyle;rounded=0;orthogonalLoop=1;jettySize=auto;html=1;entryX=1;entryY=0.75;entryDx=0;entryDy=0;entryPerimeter=0;exitX=0;exitY=0.75;exitDx=0;exitDy=0;exitPerimeter=0;" parent="1" source="YbzjO0Wu5X_i4sQfWM_N-11" target="YbzjO0Wu5X_i4sQfWM_N-12" edge="1">
          <mxGeometry relative="1" as="geometry" />
        </mxCell>
        <mxCell id="YbzjO0Wu5X_i4sQfWM_N-14" style="edgeStyle=orthogonalEdgeStyle;rounded=0;orthogonalLoop=1;jettySize=auto;html=1;entryX=0;entryY=0.25;entryDx=0;entryDy=0;entryPerimeter=0;exitX=1;exitY=0.25;exitDx=0;exitDy=0;exitPerimeter=0;" parent="1" source="YbzjO0Wu5X_i4sQfWM_N-12" target="YbzjO0Wu5X_i4sQfWM_N-11" edge="1">
          <mxGeometry relative="1" as="geometry" />
        </mxCell>
        <mxCell id="YbzjO0Wu5X_i4sQfWM_N-16" style="edgeStyle=orthogonalEdgeStyle;rounded=0;orthogonalLoop=1;jettySize=auto;html=1;entryX=0;entryY=0.75;entryDx=0;entryDy=0;entryPerimeter=0;" parent="1" source="RlSv3J6TSQUPRLLL2TL5-43" target="RlSv3J6TSQUPRLLL2TL5-33" edge="1">
          <mxGeometry relative="1" as="geometry" />
        </mxCell>
        <mxCell id="YbzjO0Wu5X_i4sQfWM_N-17" style="edgeStyle=orthogonalEdgeStyle;rounded=0;orthogonalLoop=1;jettySize=auto;html=1;entryX=0;entryY=0.25;entryDx=0;entryDy=0;entryPerimeter=0;" parent="1" source="RlSv3J6TSQUPRLLL2TL5-41" target="RlSv3J6TSQUPRLLL2TL5-33" edge="1">
          <mxGeometry relative="1" as="geometry" />
        </mxCell>
        <mxCell id="YbzjO0Wu5X_i4sQfWM_N-20" style="edgeStyle=orthogonalEdgeStyle;rounded=0;orthogonalLoop=1;jettySize=auto;html=1;entryX=0;entryY=0.5;entryDx=0;entryDy=0;entryPerimeter=0;exitX=0.5;exitY=0;exitDx=0;exitDy=0;exitPerimeter=0;" parent="1" source="hsqu-6k01tQYFVH3qqYs-15" target="hsqu-6k01tQYFVH3qqYs-20" edge="1">
          <mxGeometry relative="1" as="geometry" />
        </mxCell>
        <mxCell id="YbzjO0Wu5X_i4sQfWM_N-21" style="edgeStyle=orthogonalEdgeStyle;rounded=0;orthogonalLoop=1;jettySize=auto;html=1;entryX=0;entryY=0.5;entryDx=0;entryDy=0;entryPerimeter=0;exitX=0.5;exitY=1;exitDx=0;exitDy=0;exitPerimeter=0;" parent="1" source="hsqu-6k01tQYFVH3qqYs-15" target="hsqu-6k01tQYFVH3qqYs-32" edge="1">
          <mxGeometry relative="1" as="geometry" />
        </mxCell>
        <mxCell id="YbzjO0Wu5X_i4sQfWM_N-24" style="edgeStyle=orthogonalEdgeStyle;rounded=0;orthogonalLoop=1;jettySize=auto;html=1;entryX=0;entryY=0.5;entryDx=0;entryDy=0;entryPerimeter=0;" parent="1" target="RlSv3J6TSQUPRLLL2TL5-70" edge="1">
          <mxGeometry relative="1" as="geometry">
            <mxPoint x="1642" y="520" as="sourcePoint" />
          </mxGeometry>
        </mxCell>
        <mxCell id="YbzjO0Wu5X_i4sQfWM_N-26" style="edgeStyle=orthogonalEdgeStyle;rounded=0;orthogonalLoop=1;jettySize=auto;html=1;entryX=0;entryY=0.5;entryDx=0;entryDy=0;entryPerimeter=0;" parent="1" target="RlSv3J6TSQUPRLLL2TL5-65" edge="1">
          <mxGeometry relative="1" as="geometry">
            <mxPoint x="1642" y="520" as="sourcePoint" />
          </mxGeometry>
        </mxCell>
        <mxCell id="SpgIZWaKSg_-XhTi-_bz-5" value="" style="edgeStyle=orthogonalEdgeStyle;rounded=0;orthogonalLoop=1;jettySize=auto;html=1;entryX=0;entryY=0.5;entryDx=0;entryDy=0;entryPerimeter=0;" parent="1" source="SpgIZWaKSg_-XhTi-_bz-1" target="SpgIZWaKSg_-XhTi-_bz-3" edge="1">
          <mxGeometry relative="1" as="geometry" />
        </mxCell>
        <mxCell id="SpgIZWaKSg_-XhTi-_bz-1" value="" style="sketch=0;points=[[0,0,0],[0.25,0,0],[0.5,0,0],[0.75,0,0],[1,0,0],[0,1,0],[0.25,1,0],[0.5,1,0],[0.75,1,0],[1,1,0],[0,0.25,0],[0,0.5,0],[0,0.75,0],[1,0.25,0],[1,0.5,0],[1,0.75,0]];outlineConnect=0;fontColor=#232F3E;fillColor=#C925D1;strokeColor=#ffffff;dashed=0;verticalLabelPosition=bottom;verticalAlign=top;align=center;html=1;fontSize=12;fontStyle=0;aspect=fixed;shape=mxgraph.aws4.resourceIcon;resIcon=mxgraph.aws4.documentdb_with_mongodb_compatibility;" parent="1" vertex="1">
          <mxGeometry x="510" y="481" width="78" height="78" as="geometry" />
        </mxCell>
        <mxCell id="SpgIZWaKSg_-XhTi-_bz-8" value="" style="edgeStyle=orthogonalEdgeStyle;rounded=0;orthogonalLoop=1;jettySize=auto;html=1;" parent="1" source="SpgIZWaKSg_-XhTi-_bz-3" target="SpgIZWaKSg_-XhTi-_bz-6" edge="1">
          <mxGeometry relative="1" as="geometry" />
        </mxCell>
        <mxCell id="SpgIZWaKSg_-XhTi-_bz-3" value="" style="sketch=0;points=[[0,0,0],[0.25,0,0],[0.5,0,0],[0.75,0,0],[1,0,0],[0,1,0],[0.25,1,0],[0.5,1,0],[0.75,1,0],[1,1,0],[0,0.25,0],[0,0.5,0],[0,0.75,0],[1,0.25,0],[1,0.5,0],[1,0.75,0]];outlineConnect=0;fontColor=#232F3E;fillColor=#ED7100;strokeColor=#ffffff;dashed=0;verticalLabelPosition=bottom;verticalAlign=top;align=center;html=1;fontSize=12;fontStyle=0;aspect=fixed;shape=mxgraph.aws4.resourceIcon;resIcon=mxgraph.aws4.compute;" parent="1" vertex="1">
          <mxGeometry x="660" y="481" width="78" height="78" as="geometry" />
        </mxCell>
        <mxCell id="SpgIZWaKSg_-XhTi-_bz-4" value="Data Persistence&lt;div&gt;Service&lt;/div&gt;" style="text;html=1;align=center;verticalAlign=middle;resizable=0;points=[];autosize=1;strokeColor=none;fillColor=none;" parent="1" vertex="1">
          <mxGeometry x="710" y="440" width="110" height="40" as="geometry" />
        </mxCell>
        <mxCell id="SpgIZWaKSg_-XhTi-_bz-9" value="" style="edgeStyle=orthogonalEdgeStyle;rounded=0;orthogonalLoop=1;jettySize=auto;html=1;" parent="1" target="YbzjO0Wu5X_i4sQfWM_N-8" edge="1">
          <mxGeometry relative="1" as="geometry">
            <mxPoint x="858" y="518.9999999999998" as="sourcePoint" />
          </mxGeometry>
        </mxCell>
        <mxCell id="SpgIZWaKSg_-XhTi-_bz-6" value="" style="sketch=0;outlineConnect=0;fontColor=#232F3E;gradientColor=none;fillColor=#C925D1;strokeColor=none;dashed=0;verticalLabelPosition=bottom;verticalAlign=top;align=center;html=1;fontSize=12;fontStyle=0;aspect=fixed;pointerEvents=1;shape=mxgraph.aws4.rds_postgresql_instance;" parent="1" vertex="1">
          <mxGeometry x="800" y="480" width="78" height="78" as="geometry" />
        </mxCell>
        <mxCell id="6gRiB-G7wEjxnKPihtuX-1" value="" style="sketch=0;outlineConnect=0;fontColor=#232F3E;gradientColor=none;fillColor=#C925D1;strokeColor=none;dashed=0;verticalLabelPosition=bottom;verticalAlign=top;align=center;html=1;fontSize=12;fontStyle=0;aspect=fixed;pointerEvents=1;shape=mxgraph.aws4.rds_postgresql_instance;" vertex="1" parent="1">
          <mxGeometry x="1564" y="359" width="78" height="78" as="geometry" />
        </mxCell>
        <mxCell id="6gRiB-G7wEjxnKPihtuX-2" value="" style="sketch=0;outlineConnect=0;fontColor=#232F3E;gradientColor=none;fillColor=#C925D1;strokeColor=none;dashed=0;verticalLabelPosition=bottom;verticalAlign=top;align=center;html=1;fontSize=12;fontStyle=0;aspect=fixed;pointerEvents=1;shape=mxgraph.aws4.rds_postgresql_instance;" vertex="1" parent="1">
          <mxGeometry x="1564" y="481" width="78" height="78" as="geometry" />
        </mxCell>
        <mxCell id="6gRiB-G7wEjxnKPihtuX-3" value="" style="sketch=0;outlineConnect=0;fontColor=#232F3E;gradientColor=none;fillColor=#C925D1;strokeColor=none;dashed=0;verticalLabelPosition=bottom;verticalAlign=top;align=center;html=1;fontSize=12;fontStyle=0;aspect=fixed;pointerEvents=1;shape=mxgraph.aws4.rds_postgresql_instance;" vertex="1" parent="1">
          <mxGeometry x="1564" y="598" width="78" height="78" as="geometry" />
        </mxCell>
        <mxCell id="6gRiB-G7wEjxnKPihtuX-4" value="" style="sketch=0;points=[[0,0,0],[0.25,0,0],[0.5,0,0],[0.75,0,0],[1,0,0],[0,1,0],[0.25,1,0],[0.5,1,0],[0.75,1,0],[1,1,0],[0,0.25,0],[0,0.5,0],[0,0.75,0],[1,0.25,0],[1,0.5,0],[1,0.75,0]];outlineConnect=0;fontColor=#232F3E;fillColor=#C925D1;strokeColor=#ffffff;dashed=0;verticalLabelPosition=bottom;verticalAlign=top;align=center;html=1;fontSize=12;fontStyle=0;aspect=fixed;shape=mxgraph.aws4.resourceIcon;resIcon=mxgraph.aws4.documentdb_with_mongodb_compatibility;" vertex="1" parent="1">
          <mxGeometry x="1876" y="599" width="78" height="78" as="geometry" />
        </mxCell>
        <mxCell id="6gRiB-G7wEjxnKPihtuX-5" value="" style="sketch=0;points=[[0,0,0],[0.25,0,0],[0.5,0,0],[0.75,0,0],[1,0,0],[0,1,0],[0.25,1,0],[0.5,1,0],[0.75,1,0],[1,1,0],[0,0.25,0],[0,0.5,0],[0,0.75,0],[1,0.25,0],[1,0.5,0],[1,0.75,0]];outlineConnect=0;fontColor=#232F3E;fillColor=#C925D1;strokeColor=#ffffff;dashed=0;verticalLabelPosition=bottom;verticalAlign=top;align=center;html=1;fontSize=12;fontStyle=0;aspect=fixed;shape=mxgraph.aws4.resourceIcon;resIcon=mxgraph.aws4.documentdb_with_mongodb_compatibility;" vertex="1" parent="1">
          <mxGeometry x="1876" y="360" width="78" height="78" as="geometry" />
        </mxCell>
      </root>
    </mxGraphModel>
  </diagram>
</mxfile>
